<svg width="41" height="41" viewBox="0 0 41 41" fill="none" xmlns="http://www.w3.org/2000/svg">
<path opacity="0.6" d="M25.6251 3.41666H23.9167C19.0856 3.41666 16.6683 3.41666 15.1684 4.91828C13.6667 6.4182 13.6667 8.83549 13.6667 13.6667V27.3333C13.6667 32.1645 13.6667 34.5818 15.1684 36.0817C16.6683 37.5833 19.0856 37.5833 23.9167 37.5833H25.6251C30.4562 37.5833 32.8735 37.5833 34.3735 36.0817C35.8751 34.5818 35.8751 32.1645 35.8751 27.3333V13.6667C35.8751 8.83549 35.8751 6.4182 34.3735 4.91828C32.8735 3.41666 30.4562 3.41666 25.6251 3.41666Z" fill="white"/>
<path opacity="0.4" d="M13.6667 13.6667C13.6667 11.0393 13.6667 9.12762 13.9075 7.6875H13.6667C9.64012 7.6875 7.626 7.6875 6.3755 8.938C5.125 10.1885 5.125 12.2026 5.125 16.2292V24.7708C5.125 28.7974 5.125 30.8098 6.3755 32.062C7.626 33.3125 9.64012 33.3125 13.6667 33.3125H13.9075C13.6667 31.8724 13.6667 29.9608 13.6667 27.3333V19.2188V13.6667Z" fill="white"/>
<path fill-rule="evenodd" clip-rule="evenodd" d="M24.8222 19.5946C25.0621 19.8348 25.1969 20.1605 25.1969 20.5C25.1969 20.8395 25.0621 21.1652 24.8222 21.4054L21.4055 24.8221C21.2882 24.948 21.1467 25.0489 20.9896 25.1189C20.8324 25.189 20.6628 25.2266 20.4907 25.2297C20.3187 25.2327 20.1478 25.2011 19.9883 25.1366C19.8287 25.0722 19.6838 24.9763 19.5621 24.8546C19.4405 24.7329 19.3446 24.588 19.2801 24.4285C19.2157 24.2689 19.184 24.098 19.1871 23.926C19.1901 23.754 19.2278 23.5843 19.2978 23.4272C19.3678 23.27 19.4688 23.1285 19.5947 23.0112L20.8247 21.7812H8.54175C8.20194 21.7812 7.87605 21.6462 7.63577 21.406C7.39549 21.1657 7.2605 20.8398 7.2605 20.5C7.2605 20.1602 7.39549 19.8343 7.63577 19.594C7.87605 19.3537 8.20194 19.2187 8.54175 19.2187H20.8247L19.5947 17.9887C19.4688 17.8714 19.3678 17.73 19.2978 17.5728C19.2278 17.4157 19.1901 17.246 19.1871 17.074C19.184 16.9019 19.2157 16.731 19.2801 16.5715C19.3446 16.412 19.4405 16.267 19.5621 16.1454C19.6838 16.0237 19.8287 15.9278 19.9883 15.8634C20.1478 15.7989 20.3187 15.7673 20.4907 15.7703C20.6628 15.7733 20.8324 15.811 20.9896 15.881C21.1467 15.9511 21.2882 16.052 21.4055 16.1779L24.8222 19.5946Z" fill="white"/>
</svg>
