<svg width="62" height="62" viewBox="0 0 62 62" fill="none" xmlns="http://www.w3.org/2000/svg">
<g clip-path="url(#clip0_260_2273)">
<path opacity="0.2" d="M20.15 6.2002H40.8735C41.5182 6.19992 42.1559 6.33371 42.7462 6.59307C43.3364 6.85244 43.8663 7.23171 44.3021 7.7068L57.6755 22.283C58.4628 23.1406 58.8997 24.2623 58.9 25.4264V57.3502C58.9 58.5835 58.4101 59.7662 57.538 60.6382C56.666 61.5103 55.4833 62.0002 54.25 62.0002H20.15C18.9167 62.0002 17.734 61.5103 16.862 60.6382C15.9899 59.7662 15.5 58.5835 15.5 57.3502V10.8502C15.5 9.61694 15.9899 8.43419 16.862 7.56215C17.734 6.69011 18.9167 6.2002 20.15 6.2002Z" fill="#705050"/>
<path d="M20.1496 38.7501C19.7385 38.7501 19.3443 38.5868 19.0536 38.2962C18.7629 38.0055 18.5996 37.6112 18.5996 37.2001C18.5996 36.7891 18.7629 36.3948 19.0536 36.1041C19.3443 35.8134 19.7385 35.6501 20.1496 35.6501H41.8496C42.2607 35.6501 42.6549 35.8134 42.9456 36.1041C43.2363 36.3948 43.3996 36.7891 43.3996 37.2001C43.3996 37.6112 43.2363 38.0055 42.9456 38.2962C42.6549 38.5868 42.2607 38.7501 41.8496 38.7501H20.1496ZM20.1496 46.5001C19.7385 46.5001 19.3443 46.3368 19.0536 46.0462C18.7629 45.7555 18.5996 45.3612 18.5996 44.9501C18.5996 44.5391 18.7629 44.1448 19.0536 43.8541C19.3443 43.5634 19.7385 43.4001 20.1496 43.4001H41.8496C42.2607 43.4001 42.6549 43.5634 42.9456 43.8541C43.2363 44.1448 43.3996 44.5391 43.3996 44.9501C43.3996 45.3612 43.2363 45.7555 42.9456 46.0462C42.6549 46.3368 42.2607 46.5001 41.8496 46.5001H20.1496Z" fill="#705050"/>
<path fill-rule="evenodd" clip-rule="evenodd" d="M34.6733 3.1001H13.9498C12.7165 3.1001 11.5338 3.59001 10.6618 4.46205C9.78971 5.3341 9.2998 6.51684 9.2998 7.7501V54.2501C9.2998 55.4834 9.78971 56.6661 10.6618 57.5381C11.5338 58.4102 12.7165 58.9001 13.9498 58.9001H48.0498C49.2831 58.9001 50.4658 58.4102 51.3379 57.5381C52.2099 56.6661 52.6998 55.4834 52.6998 54.2501V22.3263C52.6995 21.1622 52.2626 20.0405 51.4753 19.1829L38.1019 4.6067C37.6661 4.13161 37.1362 3.75234 36.546 3.49297C35.9557 3.23361 35.318 3.09982 34.6733 3.1001ZM12.3998 7.7501C12.3998 7.33901 12.5631 6.94476 12.8538 6.65408C13.1445 6.3634 13.5387 6.2001 13.9498 6.2001H34.6733C34.8884 6.19986 35.1012 6.24439 35.2981 6.33085C35.495 6.41731 35.6718 6.54381 35.8172 6.7023L49.1906 21.2785C49.4534 21.5642 49.5994 21.9381 49.5998 22.3263V54.2501C49.5998 54.6612 49.4365 55.0554 49.1458 55.3461C48.8551 55.6368 48.4609 55.8001 48.0498 55.8001H13.9498C13.5387 55.8001 13.1445 55.6368 12.8538 55.3461C12.5631 55.0554 12.3998 54.6612 12.3998 54.2501V7.7501Z" fill="#705050"/>
<path d="M35.6499 6.51001V21.08H50.2199" stroke="#F9A74E" stroke-linecap="round" stroke-linejoin="round"/>
<path d="M25.2152 19.0123C25.6579 19.0258 26.0988 18.9504 26.5118 18.7903C26.9248 18.6303 27.3014 18.3889 27.6193 18.0806C27.9372 17.7722 28.19 17.4032 28.3626 16.9953C28.5352 16.5874 28.6242 16.149 28.6242 15.7061C28.6242 15.2632 28.5352 14.8249 28.3626 14.417C28.19 14.0091 27.9372 13.6401 27.6193 13.3317C27.3014 13.0234 26.9248 12.782 26.5118 12.622C26.0988 12.4619 25.6579 12.3864 25.2152 12.4C24.3559 12.4263 23.5406 12.7862 22.9421 13.4033C22.3435 14.0205 22.0088 14.8464 22.0088 15.7061C22.0088 16.5659 22.3435 17.3918 22.9421 18.009C23.5406 18.6261 24.3559 18.986 25.2152 19.0123Z" fill="#705050"/>
<path fill-rule="evenodd" clip-rule="evenodd" d="M31.8242 26.1765C31.8242 22.6611 28.8637 20.116 25.2119 20.116C21.5601 20.116 18.5996 22.658 18.5996 26.1765V27.8319C18.6004 28.124 18.7171 28.4039 18.9239 28.6102C19.1308 28.8165 19.4111 28.9324 19.7032 28.9324H30.7237C31.0153 28.9316 31.2948 28.8153 31.501 28.6091C31.7072 28.4029 31.8234 28.1235 31.8242 27.8319V26.1765Z" fill="#705050"/>
</g>
<defs>
<clipPath id="clip0_260_2273">
<rect width="62" height="62" fill="white"/>
</clipPath>
</defs>
</svg>
