<svg width="87" height="69" viewBox="0 0 87 69" fill="none" xmlns="http://www.w3.org/2000/svg">
<rect width="87" height="69" rx="10" fill="#004B84"/>
<path d="M49.3332 32.3125C49.3332 33.52 48.6798 34.5 47.8748 34.5C47.0698 34.5 46.4165 33.52 46.4165 32.3125C46.4165 31.105 47.0698 30.125 47.8748 30.125C48.6798 30.125 49.3332 31.105 49.3332 32.3125ZM40.5832 32.3125C40.5832 33.52 39.9298 34.5 39.1248 34.5C38.3198 34.5 37.6665 33.52 37.6665 32.3125C37.6665 31.105 38.3198 30.125 39.1248 30.125C39.9298 30.125 40.5832 31.105 40.5832 32.3125Z" fill="white"/>
<path fill-rule="evenodd" clip-rule="evenodd" d="M40.7964 18.823H40.8799C41.1768 18.823 41.4614 18.9382 41.6713 19.1434C41.8812 19.3485 41.9991 19.6267 41.9991 19.9167C41.9991 20.2068 41.8812 20.485 41.6713 20.6901C41.4614 20.8953 41.1768 21.0105 40.8799 21.0105C38.0342 21.0105 36.0137 21.0134 34.4782 21.2147C32.9785 21.4115 32.113 21.782 31.4817 22.3988C30.8505 23.0157 30.4715 23.8615 30.27 25.3286C30.0641 26.8278 30.0611 28.8024 30.0611 31.5834C30.0611 31.8735 29.9432 32.1517 29.7333 32.3568C29.5234 32.5619 29.2388 32.6772 28.9419 32.6772C28.6451 32.6772 28.3604 32.5619 28.1506 32.3568C27.9407 32.1517 27.8228 31.8735 27.8228 31.5834V31.5017C27.8228 28.8213 27.8228 26.698 28.0511 25.037C28.2868 23.3278 28.7823 21.9438 29.8985 20.8515C31.0162 19.7607 32.4323 19.2765 34.1812 19.0461C35.8824 18.823 38.0536 18.823 40.7964 18.823ZM53.2492 21.2147C51.7166 21.0134 49.6946 21.0105 46.8489 21.0105C46.5521 21.0105 46.2674 20.8953 46.0575 20.6901C45.8476 20.485 45.7297 20.2068 45.7297 19.9167C45.7297 19.6267 45.8476 19.3485 46.0575 19.1434C46.2674 18.9382 46.5521 18.823 46.8489 18.823H46.9325C49.6752 18.823 51.8479 18.823 53.5476 19.0461C55.2965 19.2765 56.7127 19.7607 57.8304 20.8515C58.9466 21.9438 59.442 23.3278 59.6778 25.037C59.9061 26.6995 59.9061 28.8213 59.9061 31.5017V31.5834C59.9061 31.8735 59.7882 32.1517 59.5783 32.3568C59.3684 32.5619 59.0837 32.6772 58.7869 32.6772C58.4901 32.6772 58.2054 32.5619 57.9955 32.3568C57.7856 32.1517 57.6677 31.8735 57.6677 31.5834C57.6677 28.8024 57.6647 26.8278 57.4588 25.3272C57.2573 23.8615 56.8783 23.0157 56.2471 22.3988C55.6159 21.782 54.7504 21.4115 53.2492 21.2147ZM28.9419 36.323C29.2388 36.323 29.5234 36.4382 29.7333 36.6434C29.9432 36.8485 30.0611 37.1267 30.0611 37.4167C30.0611 40.1978 30.0641 42.1738 30.27 43.673C30.4715 45.1386 30.8505 45.9845 31.4817 46.6013C32.113 47.2182 32.9785 47.5886 34.4797 47.7855C36.0137 47.9867 38.0342 47.9897 40.8799 47.9897C41.1768 47.9897 41.4614 48.1049 41.6713 48.31C41.8812 48.5151 41.9991 48.7933 41.9991 49.0834C41.9991 49.3735 41.8812 49.6517 41.6713 49.8568C41.4614 50.0619 41.1768 50.1772 40.8799 50.1772H40.7964C38.0536 50.1772 35.8809 50.1772 34.1812 49.954C32.4323 49.7236 31.0162 49.2395 29.8985 48.1486C28.7823 47.0563 28.2868 45.6724 28.0511 43.9632C27.8228 42.3007 27.8228 40.1788 27.8228 37.4984V37.4167C27.8228 37.1267 27.9407 36.8485 28.1506 36.6434C28.3604 36.4382 28.6451 36.323 28.9419 36.323ZM58.7869 36.323C59.0837 36.323 59.3684 36.4382 59.5783 36.6434C59.7882 36.8485 59.9061 37.1267 59.9061 37.4167V37.4984C59.9061 40.1788 59.9061 42.3022 59.6778 43.9632C59.442 45.6724 58.9466 47.0563 57.8304 48.1486C56.7127 49.2395 55.2965 49.7236 53.5476 49.954C51.8465 50.1772 49.6752 50.1772 46.9325 50.1772H46.8489C46.5521 50.1772 46.2674 50.0619 46.0575 49.8568C45.8476 49.6517 45.7297 49.3735 45.7297 49.0834C45.7297 48.7933 45.8476 48.5151 46.0575 48.31C46.2674 48.1049 46.5521 47.9897 46.8489 47.9897C49.6946 47.9897 51.7166 47.9867 53.2507 47.7855C54.7504 47.5886 55.6159 47.2182 56.2471 46.6013C56.8783 45.9845 57.2573 45.1386 57.4588 43.6715C57.6647 42.1738 57.6677 40.1978 57.6677 37.4167C57.6677 37.1267 57.7856 36.8485 57.9955 36.6434C58.2054 36.4382 58.4901 36.323 58.7869 36.323ZM38.4879 39.6815C38.5755 39.5661 38.6855 39.4686 38.8117 39.3948C38.9379 39.3209 39.0778 39.2721 39.2233 39.2511C39.3689 39.2301 39.5172 39.2373 39.6598 39.2724C39.8025 39.3075 39.9367 39.3697 40.0547 39.4555C41.1411 40.243 42.4528 40.698 43.8644 40.698C45.2761 40.698 46.5878 40.2415 47.6741 39.4555C47.7918 39.366 47.9266 39.3004 48.0706 39.2625C48.2145 39.2247 48.3648 39.2153 48.5125 39.2349C48.6603 39.2546 48.8025 39.3029 48.9309 39.3771C49.0592 39.4512 49.1711 39.5497 49.26 39.6666C49.3489 39.7836 49.413 39.9168 49.4485 40.0583C49.484 40.1998 49.4902 40.3469 49.4667 40.4908C49.4432 40.6347 49.3906 40.7725 49.3119 40.8963C49.2331 41.02 49.1299 41.1271 49.0082 41.2113C47.523 42.2965 45.7188 42.8837 43.8644 42.8855C42.01 42.8837 40.2058 42.2965 38.7206 41.2113C38.4822 41.0386 38.3238 40.7804 38.2801 40.4935C38.2364 40.2067 38.3112 39.9146 38.4879 39.6815Z" fill="white"/>
</svg>
