<svg width="31" height="31" viewBox="0 0 31 31" fill="none" xmlns="http://www.w3.org/2000/svg">
<path d="M7.44444 21.9444V14.4705C7.44444 13.6488 7.60556 12.861 7.90361 12.1296M23.5556 21.9444V16.8131M11.0243 8.62861C12.3851 7.84468 13.9296 7.43604 15.5 7.44444C19.1733 7.44444 22.2715 9.58722 23.2414 12.5194M12.2778 23.5556V20.0482M18.7222 23.5556V15.2632C18.7222 13.615 17.2803 12.2778 15.5 12.2778C13.7197 12.2778 12.2778 13.615 12.2778 15.2632V16.5424M5.83333 1H1V5.83333M25.1667 1H30V5.83333M5.83333 30H1V25.1667M25.1667 30H30V25.1667" stroke="black" stroke-width="1.5" stroke-linecap="round" stroke-linejoin="round"/>
</svg>
