<svg width="31" height="31" viewBox="0 0 31 31" fill="none" xmlns="http://www.w3.org/2000/svg">
<path d="M6.57692 11.44V20.6754M15.5 11.44V20.6754M11.0385 13.4254V18.69M24.4231 11.44V20.6754M19.9615 13.4254V18.69M30 23.3077V27.7692C30 28.3609 29.765 28.9283 29.3466 29.3466C28.9283 29.765 28.3609 30 27.7692 30H23.3077M23.3077 1H27.7692C28.3609 1 28.9283 1.23503 29.3466 1.65338C29.765 2.07173 30 2.63913 30 3.23077V7.69231M1 7.69231V3.23077C1 2.63913 1.23503 2.07173 1.65338 1.65338C2.07173 1.23503 2.63913 1 3.23077 1H7.69231M7.69231 30H3.23077C2.63913 30 2.07173 29.765 1.65338 29.3466C1.23503 28.9283 1 28.3609 1 27.7692V23.3077" stroke="black" stroke-width="1.5" stroke-linecap="round" stroke-linejoin="round"/>
</svg>
