<svg width="31" height="31" viewBox="0 0 31 31" fill="none" xmlns="http://www.w3.org/2000/svg">
<path d="M5.83333 1H1V5.83333M15.5 18.7222C16.3546 18.7222 17.1742 18.3827 17.7785 17.7785C18.3827 17.1742 18.7222 16.3546 18.7222 15.5C18.7222 14.6454 18.3827 13.8258 17.7785 13.2215C17.1742 12.6173 16.3546 12.2778 15.5 12.2778C14.6454 12.2778 13.8258 12.6173 13.2215 13.2215C12.6173 13.8258 12.2778 14.6454 12.2778 15.5C12.2778 16.3546 12.6173 17.1742 13.2215 17.7785C13.8258 18.3827 14.6454 18.7222 15.5 18.7222Z" stroke="black" stroke-width="1.5" stroke-linecap="round" stroke-linejoin="round"/>
<path d="M25.1667 1H30V5.83333M5.83333 30H1V25.1667M25.1667 30H30V25.1667M30 15.5C26.9566 20.3188 21.4901 25.1667 15.5 25.1667C9.50989 25.1667 4.04339 20.3188 1 15.5C4.70394 10.9212 9.04267 5.83333 15.5 5.83333C21.9573 5.83333 26.2961 10.9212 30 15.5Z" stroke="black" stroke-width="1.5" stroke-linecap="round" stroke-linejoin="round"/>
</svg>
