<svg width="49" height="49" viewBox="0 0 49 49" fill="none" xmlns="http://www.w3.org/2000/svg">
<path d="M31.3666 47.5416L31.1313 43.6684C30.6823 36.2782 36.487 30.0058 43.8898 29.8819L47.7696 29.817C48.1062 29.8093 48.4203 29.6695 48.6439 29.4279C48.8675 29.1862 48.9826 28.8623 48.9642 28.5262L48.4639 20.2912C48.4541 20.1244 48.4114 19.9597 48.3382 19.8066C48.265 19.6535 48.1629 19.515 48.0376 19.399C47.9122 19.283 47.7662 19.1919 47.6079 19.1308C47.4496 19.0697 47.2822 19.0398 47.1151 19.0429L42.0921 19.127C35.1355 19.2434 29.3204 13.8619 28.8985 6.91713L28.5939 1.90273C28.5734 1.56604 28.4198 1.2454 28.1668 1.01132C27.9139 0.777234 27.5823 0.648875 27.2451 0.654468L18.9961 0.792518C18.829 0.795005 18.6654 0.830401 18.5149 0.896676C18.3643 0.962952 18.2297 1.0588 18.1187 1.17873C18.0077 1.29866 17.9225 1.4403 17.8681 1.59553C17.8137 1.75077 17.791 1.91654 17.8015 2.08334L18.0368 5.95656C18.4858 13.3468 12.681 19.6192 5.27824 19.7431L1.39843 19.808C1.06117 19.8137 0.745864 19.9529 0.521848 20.1949C0.297832 20.437 0.183448 20.7621 0.203852 21.0988L0.70415 29.3338C0.713974 29.5006 0.756693 29.6653 0.829858 29.8184C0.903024 29.9715 1.0052 30.11 1.13051 30.226C1.25583 30.3419 1.40182 30.4331 1.56012 30.4942C1.71842 30.5553 1.88591 30.5852 2.05298 30.5821L7.07593 30.498C14.0326 30.3816 19.8476 35.763 20.2695 42.7078L20.5742 47.7222C20.5947 48.0589 20.7483 48.3796 21.0012 48.6137C21.2542 48.8477 21.5857 48.9761 21.923 48.9705L30.172 48.8325C30.3391 48.83 30.5026 48.7946 30.6532 48.7283C30.8038 48.662 30.9384 48.5662 31.0494 48.4462C31.1604 48.3263 31.2455 48.1847 31.2999 48.0294C31.3544 47.8742 31.377 47.7084 31.3666 47.5416Z" fill="#F16F52"/>
</svg>
