<svg width="36" height="35" viewBox="0 0 36 35" fill="none" xmlns="http://www.w3.org/2000/svg">
<path d="M28.1289 31.6272L23.0792 20.0169L34.9001 15.4822C35.1274 15.3934 35.3066 15.2202 35.3989 15.0001C35.4912 14.78 35.4892 14.5307 35.3932 14.3064L33.0078 8.82175C32.9597 8.71058 32.8897 8.60902 32.8019 8.52291C32.714 8.4368 32.61 8.36783 32.4959 8.31996C32.3817 8.27209 32.2597 8.24625 32.1367 8.24394C32.0137 8.24162 31.8922 8.26287 31.7792 8.30647L19.9583 12.8412L14.9086 1.23095C14.811 1.00672 14.6268 0.826477 14.3964 0.729847C14.166 0.633217 13.9083 0.628116 13.68 0.715666L8.09586 2.85786C7.98266 2.90104 7.88008 2.96575 7.79398 3.04828C7.70789 3.1308 7.63999 3.22951 7.59418 3.33875C7.54836 3.44799 7.52554 3.56561 7.527 3.68485C7.52847 3.8041 7.55421 3.92263 7.60274 4.03364L12.6524 15.6439L0.831513 20.1787C0.60322 20.2663 0.423023 20.4394 0.330548 20.6599C0.238074 20.8804 0.240893 21.1302 0.338388 21.3545L2.72382 26.8391C2.77193 26.9503 2.84192 27.0518 2.92976 27.1379C3.01761 27.224 3.12159 27.293 3.23574 27.3409C3.34989 27.3887 3.47196 27.4146 3.59495 27.4169C3.71794 27.4192 3.83943 27.398 3.95245 27.3544L15.7733 22.8196L20.823 34.4299C20.9206 34.6541 21.1048 34.8344 21.3352 34.931C21.5656 35.0276 21.8233 35.0327 22.0516 34.9452L27.6358 32.803C27.749 32.7598 27.8516 32.6951 27.9376 32.6126C28.0237 32.53 28.0916 32.4313 28.1374 32.3221C28.1833 32.2128 28.2061 32.0952 28.2046 31.976C28.2032 31.8567 28.1774 31.7382 28.1289 31.6272Z" fill="#809AAE" fill-opacity="0.68"/>
</svg>
