<svg width="55" height="54" viewBox="0 0 55 54" fill="none" xmlns="http://www.w3.org/2000/svg">
<path d="M51.9459 12.5704C52.0257 12.528 52.092 12.4672 52.138 12.3941C52.184 12.321 52.2083 12.2383 52.2083 12.154C52.2083 12.0697 52.184 11.987 52.138 11.9139C52.092 11.8408 52.0257 11.78 51.9459 11.7376L31.7519 1.0423C30.4598 0.359558 28.9928 0 27.4993 0C26.0059 0 24.5389 0.359558 23.2468 1.0423L3.05674 11.7376C2.97691 11.78 2.91068 11.8408 2.86464 11.9139C2.81861 11.987 2.79439 12.0697 2.79439 12.154C2.79439 12.2383 2.81861 12.321 2.86464 12.3941C2.91068 12.4672 2.97691 12.528 3.05674 12.5704L27.2356 25.5364C27.3169 25.58 27.4096 25.6031 27.504 25.6031C27.5984 25.6031 27.691 25.58 27.7724 25.5364L51.9459 12.5704ZM0.79328 15.8499C0.712634 15.8074 0.621122 15.7851 0.527998 15.7853C0.434875 15.7854 0.343441 15.808 0.262944 15.8506C0.182448 15.8933 0.115742 15.9546 0.0695727 16.0284C0.0234032 16.1021 -0.000592941 16.1856 1.11294e-05 16.2705V37.2284C0.00200713 38.2384 0.294009 39.2302 0.846975 40.1054C1.39994 40.9806 2.1946 41.7085 3.15193 42.2169L24.5914 53.9354C24.6717 53.9777 24.7629 54 24.8556 54C24.9484 54 25.0396 53.9778 25.12 53.9355C25.2003 53.8933 25.2671 53.8325 25.3136 53.7593C25.36 53.6861 25.3845 53.603 25.3846 53.5184V29.2027C25.3845 29.1182 25.36 29.0351 25.3136 28.9619C25.2672 28.8887 25.2005 28.828 25.1202 28.7857L0.79328 15.8499ZM29.6154 29.2871V53.5124C29.6155 53.597 29.64 53.68 29.6864 53.7532C29.7329 53.8265 29.7997 53.8873 29.88 53.9295C29.9604 53.9718 30.0516 53.994 30.1444 53.994C30.2372 53.994 30.3283 53.9717 30.4087 53.9294L51.8468 42.2108C52.8034 41.7032 53.5977 40.9762 54.1508 40.1022C54.704 39.2282 54.9967 38.2374 55 37.2284V16.2705C54.9997 16.186 54.975 16.1031 54.9285 16.03C54.8819 15.957 54.8151 15.8964 54.7348 15.8543C54.6544 15.8121 54.5634 15.79 54.4707 15.7901C54.378 15.7902 54.287 15.8124 54.2067 15.8547L29.8798 28.8713C29.7997 28.9134 29.7331 28.974 29.6867 29.047C29.6403 29.12 29.6157 29.2027 29.6154 29.2871Z" fill="#41C95D" fill-opacity="0.2"/>
</svg>
