<svg width="73" height="96" viewBox="0 0 73 96" fill="none" xmlns="http://www.w3.org/2000/svg">
<path d="M2.98085 63.437C2.19273 64.228 1.7358 65.2843 1.7103 66.3744C1.6848 67.4644 2.09281 68.499 2.84483 69.251C3.59685 70.003 4.63144 70.411 5.72146 70.3855C6.81148 70.36 7.86786 69.9031 8.65879 69.115L69.1208 8.65293C69.9089 7.862 70.3659 6.80555 70.3914 5.71553C70.4169 4.62552 70.0089 3.59099 69.2568 2.83897C68.5048 2.08694 67.4703 1.67888 66.3803 1.70438C65.2903 1.72988 64.2338 2.18687 63.4429 2.97499L2.98085 63.437Z" fill="#F16F52" fill-opacity="0.5"/>
<path d="M2.98054 87.0877C2.19004 87.8782 1.73103 88.9354 1.70447 90.0268C1.67792 91.1182 2.08603 92.1543 2.83897 92.9072C3.59191 93.6602 4.62802 94.0683 5.71939 94.0417C6.81077 94.0152 7.868 93.5562 8.65849 92.7657L69.1205 32.3037C69.9086 31.5127 70.3656 30.4563 70.3911 29.3663C70.4166 28.2762 70.0086 27.2417 69.2565 26.4897C68.5045 25.7377 67.47 25.3296 66.38 25.3551C65.2899 25.3806 64.2335 25.8376 63.4426 26.6257L2.98054 87.0877Z" fill="#F16F52" fill-opacity="0.5"/>
</svg>
