<svg width="36" height="36" viewBox="0 0 36 36" fill="none" xmlns="http://www.w3.org/2000/svg">
<path d="M22.7828 34.3078V34.3078C22.3644 27.4199 27.7745 21.5739 34.6742 21.4584V21.4584C34.9181 21.4528 35.1458 21.3515 35.3079 21.1763C35.47 21.0011 35.5535 20.7663 35.5402 20.5226L35.1775 14.5527C35.1704 14.4318 35.1394 14.3124 35.0863 14.2014C35.0333 14.0904 34.9592 13.99 34.8684 13.9059C34.7775 13.8218 34.6717 13.7558 34.5569 13.7115C34.4422 13.6672 34.3208 13.6455 34.1996 13.6478L33.9797 13.6515C27.0231 13.7679 21.208 8.38641 20.7861 1.4416L20.7728 1.22206C20.7579 0.977979 20.6466 0.745532 20.4632 0.575834C20.2798 0.406136 20.0394 0.313083 19.7949 0.317138L13.8149 0.417217C13.6937 0.419019 13.5752 0.44468 13.466 0.492726C13.3569 0.540772 13.2593 0.610258 13.1788 0.697199C13.0984 0.784139 13.0366 0.886824 12.9972 0.999361C12.9577 1.1119 12.9413 1.23207 12.9489 1.353V1.353C13.3673 8.24087 7.95714 14.087 1.05753 14.2024V14.2024C0.813037 14.2065 0.584457 14.3074 0.422057 14.4829C0.259657 14.6584 0.176735 14.8941 0.191527 15.1382L0.554215 21.1081C0.561337 21.229 0.592306 21.3484 0.645347 21.4594C0.698388 21.5704 0.772458 21.6708 0.863306 21.7549C0.954153 21.839 1.05999 21.905 1.17475 21.9493C1.28951 21.9936 1.41093 22.0153 1.53205 22.013L1.75197 22.0094C8.7086 21.8929 14.5237 27.2744 14.9456 34.2192L14.9589 34.4387C14.9738 34.6828 15.0851 34.9153 15.2685 35.085C15.4519 35.2547 15.6922 35.3477 15.9367 35.3437L21.9168 35.2436C22.038 35.2418 22.1565 35.2161 22.2657 35.1681C22.3748 35.12 22.4724 35.0505 22.5529 34.9636C22.6333 34.8767 22.6951 34.774 22.7345 34.6614C22.774 34.5489 22.7904 34.4287 22.7828 34.3078Z" fill="#F16F52"/>
</svg>
